<svg width="15" height="20" viewBox="0 0 15 20" fill="none" xmlns="http://www.w3.org/2000/svg">
<path d="M13.1552 5.00113C13.0281 4.99019 12.9001 5.00535 12.7787 5.04573C12.6573 5.08611 12.5448 5.15092 12.4477 5.23642C12.3506 5.32192 12.2708 5.42643 12.213 5.54393C12.1551 5.66142 12.1203 5.78959 12.1105 5.92106L11.772 10.4707C11.3247 10.3276 10.9235 10.0614 10.6113 9.70077C10.5205 9.59437 10.4089 9.50916 10.2838 9.45079C10.1587 9.39242 10.023 9.36223 9.88581 9.36223C9.74858 9.36223 9.61292 9.39242 9.48784 9.45079C9.36276 9.50916 9.25113 9.59437 9.16036 9.70077C8.92029 9.97046 8.62871 10.1857 8.30406 10.333C7.9794 10.4802 7.62873 10.5563 7.27419 10.5563C6.91966 10.5563 6.56899 10.4802 6.24433 10.333C5.91967 10.1857 5.62809 9.97046 5.38803 9.70077C5.29726 9.59437 5.18562 9.50916 5.06055 9.45079C4.93547 9.39242 4.79981 9.36223 4.66258 9.36223C4.52534 9.36223 4.38968 9.39242 4.26461 9.45079C4.13953 9.50916 4.0279 9.59437 3.93713 9.70077C3.62394 10.0603 3.22306 10.3262 2.77641 10.4707L2.43786 5.92106C2.4281 5.78959 2.39328 5.66142 2.33541 5.54393C2.27754 5.42643 2.19777 5.32192 2.10068 5.23642C2.00358 5.15092 1.89109 5.08611 1.76968 5.04573C1.64826 5.00535 1.52032 4.99019 1.39322 5.00113C1.26605 5.01122 1.14206 5.04721 1.0284 5.10704C0.914743 5.16686 0.81365 5.24933 0.730942 5.3497C0.648233 5.45007 0.585544 5.56636 0.546482 5.69187C0.507419 5.81739 0.492754 5.94965 0.503332 6.08105L1.33518 17.2302C1.39134 17.9853 1.72169 18.6904 2.25991 19.2042C2.79814 19.7179 3.50441 20.0022 4.23698 20H10.3308C11.0633 20.0022 11.7696 19.7179 12.3078 19.2042C12.846 18.6904 13.1764 17.9853 13.2326 17.2302L14.0451 6.08105C14.0556 5.94965 14.041 5.81739 14.0019 5.69187C13.9628 5.56636 13.9002 5.45007 13.8174 5.3497C13.7347 5.24933 13.6336 5.16686 13.52 5.10704C13.4063 5.04721 13.2823 5.01122 13.1552 5.00113ZM11.2787 17.0802C11.2592 17.3313 11.1487 17.5655 10.9694 17.7361C10.7901 17.9066 10.5551 18.0009 10.3114 18.0001H4.22731C3.98363 18.0009 3.74864 17.9066 3.56931 17.7361C3.38998 17.5655 3.27953 17.3313 3.26004 17.0802L2.9215 12.5006C3.54862 12.3651 4.14156 12.096 4.66258 11.7106C5.42544 12.2712 6.33821 12.5724 7.27419 12.5724C8.21018 12.5724 9.12294 12.2712 9.88581 11.7106C10.4068 12.096 10.9998 12.3651 11.6269 12.5006L11.2787 17.0802ZM7.27419 8.0009C8.10715 7.99826 8.90526 7.65503 9.49425 7.04615C10.0832 6.43728 10.4153 5.61222 10.4178 4.75115C10.4178 2.00136 7.92226 0.241489 7.81586 0.171494C7.65591 0.059727 7.46726 0 7.27419 0C7.08113 0 6.89248 0.059727 6.73252 0.171494C6.62613 0.251488 4.13058 2.00136 4.13058 4.75115C4.13313 5.61222 4.46515 6.43728 5.05414 7.04615C5.64313 7.65503 6.44124 7.99826 7.27419 8.0009ZM7.27419 2.30133C7.97415 2.92101 8.40875 3.8016 8.48328 4.75115C8.48328 5.08264 8.35589 5.40056 8.12914 5.63496C7.9024 5.86937 7.59486 6.00105 7.27419 6.00105C6.95353 6.00105 6.64599 5.86937 6.41924 5.63496C6.1925 5.40056 6.06511 5.08264 6.06511 4.75115C6.14471 3.8031 6.57839 2.92438 7.27419 2.30133Z" fill="#C4C4C4"/>
</svg>
