<svg width="17" height="20" viewBox="0 0 17 20" fill="none" xmlns="http://www.w3.org/2000/svg">
<path d="M15.4688 0C15.1952 0 14.9329 0.105357 14.7395 0.292893C14.5461 0.48043 14.4375 0.734784 14.4375 1V6.46L13.4062 7.13V1C13.4062 0.734784 13.2976 0.48043 13.1042 0.292893C12.9108 0.105357 12.6485 0 12.375 0C12.1015 0 11.8392 0.105357 11.6458 0.292893C11.4524 0.48043 11.3438 0.734784 11.3438 1V7.13L10.3125 6.46V1C10.3125 0.734784 10.2039 0.48043 10.0105 0.292893C9.81706 0.105357 9.55475 0 9.28125 0C9.00775 0 8.74544 0.105357 8.55205 0.292893C8.35865 0.48043 8.25 0.734784 8.25 1V7C8.25088 7.16471 8.2937 7.32665 8.37466 7.47145C8.45561 7.61625 8.5722 7.73941 8.71406 7.83L11.3438 9.54V19C11.3438 19.2652 11.4524 19.5196 11.6458 19.7071C11.8392 19.8946 12.1015 20 12.375 20C12.6485 20 12.9108 19.8946 13.1042 19.7071C13.2976 19.5196 13.4062 19.2652 13.4062 19V9.54L16.0359 7.83C16.1778 7.73941 16.2944 7.61625 16.3753 7.47145C16.4563 7.32665 16.4991 7.16471 16.5 7V1C16.5 0.734784 16.3914 0.48043 16.198 0.292893C16.0046 0.105357 15.7423 0 15.4688 0ZM5.15625 0C3.78873 0 2.47722 0.526784 1.51023 1.46447C0.543246 2.40215 0 3.67392 0 5V11C0 11.2652 0.108649 11.5196 0.302046 11.7071C0.495443 11.8946 0.757746 12 1.03125 12H4.125V19C4.125 19.2652 4.23365 19.5196 4.42705 19.7071C4.62044 19.8946 4.88275 20 5.15625 20C5.42975 20 5.69206 19.8946 5.88545 19.7071C6.07885 19.5196 6.1875 19.2652 6.1875 19V1C6.1875 0.734784 6.07885 0.48043 5.88545 0.292893C5.69206 0.105357 5.42975 0 5.15625 0ZM4.125 10H2.0625V5C2.06216 4.37935 2.26035 3.77387 2.62975 3.26702C2.99914 2.76016 3.52156 2.37688 4.125 2.17V10Z" fill="#C4C4C4"/>
</svg>
