<svg width="18" height="20" viewBox="0 0 18 20" fill="none" xmlns="http://www.w3.org/2000/svg">
<path d="M8 9.89999V15C8 15.2652 8.10536 15.5196 8.29289 15.7071C8.48043 15.8946 8.73478 16 9 16C9.26522 16 9.51957 15.8946 9.70711 15.7071C9.89464 15.5196 10 15.2652 10 15V9.89999C11.214 9.65217 12.2928 8.9624 13.0272 7.9644C13.7616 6.9664 14.0992 5.73126 13.9747 4.49846C13.8501 3.26566 13.2723 2.12301 12.3532 1.29205C11.434 0.461087 10.2391 0.00100708 9 0.00100708C7.76092 0.00100708 6.56598 0.461087 5.64685 1.29205C4.72771 2.12301 4.14986 3.26566 4.02532 4.49846C3.90078 5.73126 4.23843 6.9664 4.9728 7.9644C5.70718 8.9624 6.78596 9.65217 8 9.89999ZM9 1.99999C9.59334 1.99999 10.1734 2.17593 10.6667 2.50558C11.1601 2.83522 11.5446 3.30376 11.7716 3.85194C11.9987 4.40011 12.0581 5.00331 11.9424 5.58526C11.8266 6.1672 11.5409 6.70175 11.1213 7.12131C10.7018 7.54086 10.1672 7.82659 9.58527 7.94234C9.00333 8.0581 8.40013 7.99869 7.85195 7.77163C7.30377 7.54456 6.83524 7.16004 6.50559 6.6667C6.17595 6.17335 6 5.59333 6 4.99999C6 4.20434 6.31607 3.44128 6.87868 2.87867C7.44129 2.31606 8.20435 1.99999 9 1.99999V1.99999ZM13.21 12.42C13.0787 12.3924 12.9432 12.391 12.8113 12.4157C12.6795 12.4405 12.5537 12.491 12.4414 12.5644C12.329 12.6377 12.2322 12.7325 12.1565 12.8433C12.0808 12.9541 12.0276 13.0787 12 13.21C11.9724 13.3413 11.971 13.4768 11.9958 13.6087C12.0205 13.7405 12.071 13.8662 12.1444 13.9786C12.2178 14.091 12.3125 14.1878 12.4233 14.2635C12.5341 14.3392 12.6587 14.3924 12.79 14.42C15.06 14.87 16 15.68 16 16C16 16.58 13.55 18 9 18C4.45 18 2 16.58 2 16C2 15.68 2.94 14.87 5.21 14.38C5.34132 14.3524 5.46593 14.2992 5.5767 14.2235C5.68747 14.1478 5.78224 14.051 5.8556 13.9386C5.92896 13.8262 5.97947 13.7005 6.00424 13.5687C6.02902 13.4368 6.02758 13.3013 6 13.17C5.97242 13.0387 5.91925 12.9141 5.84352 12.8033C5.76778 12.6925 5.67097 12.5977 5.55861 12.5244C5.44626 12.451 5.32055 12.4005 5.18867 12.3757C5.05679 12.351 4.92132 12.3524 4.79 12.38C1.75 13.08 0 14.39 0 16C0 18.63 4.53 20 9 20C13.47 20 18 18.63 18 16C18 14.39 16.25 13.08 13.21 12.42Z" fill="#EDEDED"/>
</svg>
