<svg width="21" height="21"
    viewBox="0 0 21 21"
    fill="none"
    xmlns="http://www.w3.org/2000/svg">
    <circle opacity="0.6" cx="10.5" cy="10.5" r="10.5" fill="#006561" />
    <path
        d="M11.4291 10.5027L14.251 7.68737C14.3746 7.5638 14.444 7.3962 14.444 7.22144C14.444 7.04667 14.3746 6.87907 14.251 6.7555C14.1274 6.63192 13.9598 6.5625 13.7851 6.5625C13.6103 6.5625 13.4427 6.63192 13.3191 6.7555L10.5038 9.57737L7.68849 6.7555C7.56492 6.63192 7.39732 6.5625 7.22256 6.5625C7.04779 6.5625 6.88019 6.63192 6.75662 6.7555C6.63304 6.87907 6.56362 7.04667 6.56362 7.22144C6.56362 7.3962 6.63304 7.5638 6.75662 7.68737L9.57849 10.5027L6.75662 13.318C6.69511 13.379 6.64629 13.4516 6.61297 13.5316C6.57965 13.6115 6.5625 13.6973 6.5625 13.7839C6.5625 13.8706 6.57965 13.9563 6.61297 14.0363C6.64629 14.1163 6.69511 14.1889 6.75662 14.2499C6.81762 14.3114 6.89021 14.3602 6.97018 14.3935C7.05015 14.4268 7.13592 14.444 7.22256 14.444C7.30919 14.444 7.39496 14.4268 7.47493 14.3935C7.5549 14.3602 7.62749 14.3114 7.68849 14.2499L10.5038 11.428L13.3191 14.2499C13.3801 14.3114 13.4527 14.3602 13.5327 14.3935C13.6126 14.4268 13.6984 14.444 13.7851 14.444C13.8717 14.444 13.9575 14.4268 14.0374 14.3935C14.1174 14.3602 14.19 14.3114 14.251 14.2499C14.3125 14.1889 14.3613 14.1163 14.3946 14.0363C14.428 13.9563 14.4451 13.8706 14.4451 13.7839C14.4451 13.6973 14.428 13.6115 14.3946 13.5316C14.3613 13.4516 14.3125 13.379 14.251 13.318L11.4291 10.5027Z"
        fill="white" />
</svg>