<svg width="505" height="80" viewBox="0 0 505 80" fill="none" xmlns="http://www.w3.org/2000/svg">
<path d="M104.96 14.7114C56.4212 -22.4011 24.4523 23.4548 1 61.84V79.5H504V65.9372C485.448 47.2227 459.056 24.4648 417.891 29.0546C387.438 32.4502 372.737 42.5782 331.783 43.8076C290.829 45.0371 280.328 2.00742 235.173 4.87606C190.019 7.74471 156.415 54.0536 104.96 14.7114Z" fill="url(#paint0_linear_2921_1146)"/>
<path d="M1 61.84C24.4523 23.4548 56.4212 -22.4012 104.96 14.7114C156.415 54.0536 190.019 7.74469 235.173 4.87605C280.328 2.0074 290.829 45.037 331.783 43.8076C372.737 42.5782 387.438 32.4501 417.891 29.0546C459.056 24.4648 485.448 47.2227 504 65.9372" stroke="#5EA8FF" stroke-width="2"/>
<defs>
<linearGradient id="paint0_linear_2921_1146" x1="252.5" y1="1" x2="252.5" y2="79.089" gradientUnits="userSpaceOnUse">
<stop stop-color="#5EA8FF" stop-opacity="0.6"/>
<stop offset="1" stop-color="#5EA8FF" stop-opacity="0.1"/>
</linearGradient>
</defs>
</svg>
