<svg width="503" height="60" viewBox="0 0 503 60" fill="none" xmlns="http://www.w3.org/2000/svg">
<path d="M104.547 11.2181C56.2009 -16.4391 24.3591 17.7339 1 46.3394V59.5H502V49.3927C483.522 35.4462 457.234 18.4865 416.234 21.9069C385.902 24.4374 371.259 31.985 330.468 32.9012C289.676 33.8174 279.217 1.75075 234.242 3.88853C189.267 6.02631 155.798 40.5367 104.547 11.2181Z" fill="url(#paint0_linear_2920_1142)"/>
<path d="M1 46.3394C24.3591 17.7339 56.2009 -16.4391 104.547 11.2181C155.798 40.5367 189.267 6.0263 234.242 3.88852C279.217 1.75074 289.676 33.8174 330.468 32.9012C371.259 31.985 385.902 24.4374 416.234 21.9069C457.234 18.4865 483.522 35.4462 502 49.3927" stroke="#5EA8FF" stroke-width="2"/>
<defs>
<linearGradient id="paint0_linear_2920_1142" x1="251.5" y1="1" x2="251.5" y2="59.1937" gradientUnits="userSpaceOnUse">
<stop stop-color="#5EA8FF" stop-opacity="0.6"/>
<stop offset="1" stop-color="#5EA8FF" stop-opacity="0"/>
</linearGradient>
</defs>
</svg>
